<svg xmlns="http://www.w3.org/2000/svg" x="0px" y="0px" width="100" height="100" viewBox="0 0 24 24">
<path d="M2.123 4.25l2.166 0c.121 0 .224.086.246.205l1.701 9.358c.151.832.876 1.437 1.722 1.437l11.363 0c.82 0 1.531-.57 1.708-1.37.35-1.573 1.139-5.123 1.556-7 .115-.519-.011-1.061-.343-1.475-.332-.414-.835-.655-1.365-.655-3.254 0-11.754 0-11.754 0-.414 0-.75.336-.75.75 0 .414.336.75.75.75 0 0 8.5 0 11.754 0 .076 0 .147.034.195.094.047.059.065.136.049.21l-1.556 7c-.025.115-.127.196-.244.196 0 0-11.363 0-11.363 0-.121 0-.224-.086-.246-.205l-1.701-9.358c-.152-.832-.877-1.437-1.722-1.437-.888 0-2.166 0-2.166 0-.414 0-.75.336-.75.75 0 .414.336.75.75.75zM18.123 15.75c-1.517 0-2.75 1.232-2.75 2.75 0 1.518 1.233 2.75 2.75 2.75 1.518 0 2.75-1.232 2.75-2.75 0-1.518-1.232-2.75-2.75-2.75zm0 1.5c.69 0 1.25.56 1.25 1.25 0 .69-.56 1.25-1.25 1.25-.69 0-1.25-.56-1.25-1.25 0-.69.56-1.25 1.25-1.25zM9.623 15.75c-1.517 0-2.75 1.232-2.75 2.75 0 1.518 1.233 2.75 2.75 2.75 1.518 0 2.75-1.232 2.75-2.75 0-1.518-1.232-2.75-2.75-2.75zm0 1.5c.69 0 1.25.56 1.25 1.25 0 .69-.56 1.25-1.25 1.25-.69 0-1.25-.56-1.25-1.25 0-.69.56-1.25 1.25-1.25z"></path>
</svg>