<svg xmlns="http://www.w3.org/2000/svg" x="0px" y="0px" width="100" height="100" viewBox="0,0,256,256">
<g fill="#000000" fill-rule="nonzero" stroke="none" stroke-width="1" stroke-linecap="butt" stroke-linejoin="miter" stroke-miterlimit="10" stroke-dasharray="" stroke-dashoffset="0" font-family="none" font-weight="none" font-size="none" text-anchor="none" style="mix-blend-mode: normal"><g transform="translate(-7.68,43.51809) scale(8.53333,8.53333)"><path d="M5.98438,6.98633c-0.55152,0.00862 -0.99193,0.46214 -0.98437,1.01367h-1c-0.552,0 -1,0.448 -1,1v1c0,0.552 0.448,1 1,1h22c0.552,0 1,-0.448 1,-1v-1c0,-0.552 -0.448,-1 -1,-1h-1c0.0037,-0.2703 -0.10218,-0.53059 -0.29351,-0.72155c-0.19133,-0.19097 -0.45182,-0.29634 -0.72212,-0.29212c-0.55152,0.00862 -0.99193,0.46214 -0.98437,1.01367h-16c0.0037,-0.2703 -0.10218,-0.53059 -0.29351,-0.72155c-0.19133,-0.19097 -0.45182,-0.29634 -0.72212,-0.29212zM5.98438,11.98633c-0.55152,0.00862 -0.99193,0.46214 -0.98437,1.01367h-1c-0.552,0 -1,0.448 -1,1v1c0,0.552 0.448,1 1,1h22c0.552,0 1,-0.448 1,-1v-1c0,-0.552 -0.448,-1 -1,-1h-1c0.0037,-0.2703 -0.10218,-0.53059 -0.29351,-0.72155c-0.19133,-0.19097 -0.45182,-0.29634 -0.72212,-0.29212c-0.55152,0.00862 -0.99193,0.46214 -0.98437,1.01367h-16c0.0037,-0.2703 -0.10218,-0.53059 -0.29351,-0.72155c-0.19133,-0.19097 -0.45182,-0.29634 -0.72212,-0.29212zM5.98438,16.98633c-0.55152,0.00862 -0.99193,0.46214 -0.98437,1.01367h-3c-0.552,0 -1,0.448 -1,1v1c0,0.552 0.448,1 1,1h1v3c-0.0051,0.36064 0.18438,0.69608 0.49587,0.87789c0.3115,0.18181 0.69676,0.18181 1.00825,0c0.3115,-0.18181 0.50097,-0.51725 0.49587,-0.87789v-3h20v3c-0.0051,0.36064 0.18438,0.69608 0.49587,0.87789c0.3115,0.18181 0.69676,0.18181 1.00825,0c0.3115,-0.18181 0.50097,-0.51725 0.49587,-0.87789v-3h1c0.552,0 1,-0.448 1,-1v-1c0,-0.552 -0.448,-1 -1,-1h-3c0.0037,-0.2703 -0.10218,-0.53059 -0.29351,-0.72155c-0.19133,-0.19097 -0.45182,-0.29634 -0.72212,-0.29212c-0.55152,0.00862 -0.99193,0.46214 -0.98437,1.01367h-16c0.0037,-0.2703 -0.10218,-0.53059 -0.29351,-0.72155c-0.19133,-0.19097 -0.45182,-0.29634 -0.72212,-0.29212z"></path></g></g>
</svg>