<svg xmlns="http://www.w3.org/2000/svg" x="0px" y="0px" width="100" height="100" viewBox="0,0,256,256">
<g transform=""><g fill="#000000" fill-rule="nonzero" stroke="none" stroke-width="1" stroke-linecap="butt" stroke-linejoin="miter" stroke-miterlimit="10" stroke-dasharray="" stroke-dashoffset="0" font-family="none" font-weight="none" font-size="none" text-anchor="none" style="mix-blend-mode: normal"><g transform="translate(-21.504,16.384) scale(5.12,5.12)"><path d="M8,2v4h-4v42h42v-34h-16v-8h-4v-4zM10,4h14v4h4v38h-9v-7h-4v7h-9v-38h4zM10,10v2h2v-2zM14,10v2h2v-2zM18,10v2h2v-2zM22,10v2h2v-2zM10,15v4h2v-4zM14,15v4h2v-4zM18,15v4h2v-4zM22,15v4h2v-4zM30,16h14v30h-14zM32,18v2h2v-2zM36,18v2h2v-2zM40,18v2h2v-2zM10,21v4h2v-4zM14,21v4h2v-4zM18,21v4h2v-4zM22,21v4h2v-4zM32,22v2h2v-2zM36,22v2h2v-2zM40,22v2h2v-2zM32,26v2h2v-2zM36,26v2h2v-2zM40,26v2h2v-2zM10,27v4h2v-4zM14,27v4h2v-4zM18,27v4h2v-4zM22,27v4h2v-4zM32,30v2h2v-2zM36,30v2h2v-2zM40,30v2h2v-2zM10,33v4h2v-4zM14,33v4h2v-4zM18,33v4h2v-4zM22,33v4h2v-4zM32,34v2h2v-2zM36,34v2h2v-2zM40,34v2h2v-2zM32,38v2h2v-2zM36,38v2h2v-2zM40,38v2h2v-2zM10,39v5h2v-5zM22,39v5h2v-5zM32,42v2h2v-2zM36,42v2h2v-2zM40,42v2h2v-2z"></path></g></g></g>
</svg>