<svg xmlns="http://www.w3.org/2000/svg" x="0px" y="0px" width="100" height="100" viewBox="0,0,256,256">
<g fill="#000000" fill-rule="nonzero" stroke="none" stroke-width="1" stroke-linecap="butt" stroke-linejoin="miter" stroke-miterlimit="10" stroke-dasharray="" stroke-dashoffset="0" font-family="none" font-weight="none" font-size="none" text-anchor="none" style="mix-blend-mode: normal"><g transform="translate(-21.33333,16.21333) scale(8.53333,8.53333)"><path d="M15,2c-0.30521,0.00016 -0.59364,0.1397 -0.7832,0.37891l-4.83008,4.83203c-0.24375,0.18926 -0.38647,0.48046 -0.38672,0.78906c0,0.55228 0.44772,1 1,1h3.04492l-5.41016,4.27539v0.00195c-0.39729,0.28054 -0.63391,0.7363 -0.63477,1.22266c0,0.82843 0.67157,1.5 1.5,1.5h3.39844l-6.26758,5.27734v0.00195c-0.39525,0.281 -0.63027,0.73575 -0.63086,1.2207c0,0.82843 0.67157,1.5 1.5,1.5h6.5v3c0,0.552 0.448,1 1,1h2c0.552,0 1,-0.448 1,-1v-3h6.5c0.82843,0 1.5,-0.67157 1.5,-1.5c0.00004,-0.48565 -0.23505,-0.94126 -0.63086,-1.22266l-6.26758,-5.27734h3.39844c0.82843,0 1.5,-0.67157 1.5,-1.5c-0.00023,-0.48705 -0.23691,-0.94367 -0.63477,-1.22461l-0.00586,-0.00586c-0.00389,-0.00262 -0.0078,-0.00523 -0.01172,-0.00781l-5.39258,-4.26172h3.04492c0.55228,0 1,-0.44772 1,-1c-0.00025,-0.3086 -0.14296,-0.5998 -0.38672,-0.78906l-4.83008,-4.83203c-0.18956,-0.23921 -0.47799,-0.37874 -0.7832,-0.37891z"></path></g></g>
</svg>